<?xml version="1.0" standalone="no"?>
<!DOCTYPE svg PUBLIC "-//W3C//DTD SVG 20010904//EN"
 "http://www.w3.org/TR/2001/REC-SVG-20010904/DTD/svg10.dtd">
<svg version="1.0" xmlns="http://www.w3.org/2000/svg"
 width="300.000000pt" height="300.000000pt" viewBox="0 0 300.000000 300.000000"
 preserveAspectRatio="xMidYMid meet">
<metadata>
Created by potrace 1.10, written by Peter Selinger 2001-2011
</metadata>
<g transform="translate(0.000000,300.000000) scale(0.100000,-0.100000)"
fill="#000000" stroke="none">
<path d="M1290 2015 c-7 -8 -24 -16 -39 -16 -20 -1 -21 -3 -5 -6 23 -4 80 22
66 31 -5 3 -15 -1 -22 -9z"/>
<path d="M2010 2024 c34 -7 158 -9 147 -2 -7 4 -46 7 -87 7 -41 -1 -68 -3 -60
-5z"/>
<path d="M1058 2003 c18 -2 45 -2 60 0 15 2 0 4 -33 4 -33 0 -45 -2 -27 -4z"/>
<path d="M1895 1995 c-25 -12 -26 -14 -5 -9 28 7 60 23 45 23 -5 0 -23 -6 -40
-14z"/>
<path d="M2210 1977 c19 -20 37 -37 39 -37 10 0 -29 45 -50 59 -18 11 -15 5
11 -22z"/>
<path d="M918 1993 c18 -2 45 -2 60 0 15 2 0 4 -33 4 -33 0 -45 -2 -27 -4z"/>
<path d="M1168 1993 c12 -2 30 -2 40 0 9 3 -1 5 -23 4 -22 0 -30 -2 -17 -4z"/>
<path d="M2651 1991 c-10 -6 -1 -8 26 -4 56 7 90 -2 120 -35 22 -23 24 -24 14
-5 -23 44 -119 70 -160 44z"/>
<path d="M848 1983 c6 -2 18 -2 25 0 6 3 1 5 -13 5 -14 0 -19 -2 -12 -5z"/>
<path d="M2028 1983 c6 -2 18 -2 25 0 6 3 1 5 -13 5 -14 0 -19 -2 -12 -5z"/>
<path d="M2108 1983 c7 -3 16 -2 19 1 4 3 -2 6 -13 5 -11 0 -14 -3 -6 -6z"/>
<path d="M752 1970 c-18 -4 -36 -11 -39 -14 -9 -8 58 5 77 15 18 10 7 10 -38
-1z"/>
<path d="M1358 1973 c7 -3 16 -2 19 1 4 3 -2 6 -13 5 -11 0 -14 -3 -6 -6z"/>
<path d="M1830 1965 c-14 -8 -20 -14 -14 -15 5 0 19 7 30 15 24 18 16 19 -16
0z"/>
<path d="M1945 1965 c-25 -12 -26 -14 -5 -9 28 7 60 23 45 23 -5 0 -23 -6 -40
-14z"/>
<path d="M2162 1951 c13 -15 25 -27 27 -25 7 6 -29 54 -40 54 -6 0 0 -13 13
-29z"/>
<path d="M2563 1954 c-24 -14 -43 -27 -43 -29 0 -5 90 42 99 50 13 14 -19 2
-56 -21z"/>
<path d="M1123 1963 l109 -4 -24 -32 c-26 -34 -45 -66 -35 -57 22 20 66 84 61
91 -3 5 -53 8 -112 7 l-107 -2 108 -3z"/>
<path d="M1398 1963 c6 -2 18 -2 25 0 6 3 1 5 -13 5 -14 0 -19 -2 -12 -5z"/>
<path d="M963 1953 c9 -2 25 -2 35 0 9 3 1 5 -18 5 -19 0 -27 -2 -17 -5z"/>
<path d="M670 1940 c-9 -6 -10 -10 -3 -10 6 0 15 5 18 10 8 12 4 12 -15 0z"/>
<path d="M837 1940 c-20 -4 -40 -10 -43 -13 -8 -8 64 3 91 14 24 9 3 9 -48 -1z"/>
<path d="M1275 1924 c-9 -14 -14 -28 -12 -31 3 -3 13 9 22 26 19 38 14 41 -10
5z"/>
<path d="M1340 1941 c41 -13 97 -22 80 -12 -8 5 -35 11 -60 15 -30 4 -36 3
-20 -3z"/>
<path d="M1484 1936 c11 -9 24 -16 30 -16 12 0 7 5 -24 19 -24 11 -24 11 -6
-3z"/>
<path d="M1744 1914 c-58 -44 -144 -125 -144 -137 0 -4 19 12 43 35 55 57 131
118 146 118 6 0 11 5 11 10 0 15 -2 13 -56 -26z"/>
<path d="M1884 1934 c-18 -14 -18 -15 4 -4 12 6 22 13 22 15 0 8 -5 6 -26 -11z"/>
<path d="M2630 1930 c-8 -5 -10 -10 -5 -10 6 0 17 5 25 10 8 5 11 10 5 10 -5
0 -17 -5 -25 -10z"/>
<path d="M2685 1933 c11 -3 27 -10 35 -17 13 -10 13 -9 1 7 -7 9 -23 16 -35
16 -20 -1 -20 -2 -1 -6z"/>
<path d="M587 1895 c-20 -14 -37 -28 -37 -31 0 -2 18 8 40 22 35 23 47 34 37
34 -1 0 -19 -11 -40 -25z"/>
<path d="M725 1905 c-25 -12 -26 -14 -5 -9 28 7 60 23 45 23 -5 0 -23 -6 -40
-14z"/>
<path d="M1465 1893 c17 -17 32 -29 34 -27 6 6 -20 34 -43 46 -14 8 -11 1 9
-19z"/>
<path d="M1530 1913 c0 -7 6 -16 13 -20 7 -4 21 -19 30 -33 9 -13 17 -19 17
-12 0 16 -59 81 -60 65z"/>
<path d="M1829 1903 c-13 -15 -12 -15 9 -4 23 12 28 21 13 21 -5 0 -15 -7 -22
-17z"/>
<path d="M2460 1880 c-40 -33 -157 -160 -148 -160 2 0 48 45 102 100 54 55 97
100 95 100 -2 -1 -24 -18 -49 -40z"/>
<path d="M2574 1904 c-18 -14 -18 -14 6 -3 31 14 36 19 24 19 -6 0 -19 -7 -30
-16z"/>
<path d="M2194 1844 c0 -63 1 -66 9 -31 6 23 6 51 1 69 -7 25 -9 18 -10 -38z"/>
<path d="M2262 1838 c-1 -42 -5 -85 -8 -95 -5 -17 -5 -17 6 -1 6 11 9 49 7 95
l-3 78 -2 -77z"/>
<path d="M664 1874 c-18 -14 -18 -15 4 -4 12 6 22 13 22 15 0 8 -5 6 -26 -11z"/>
<path d="M1789 1873 c-13 -16 -12 -17 4 -4 9 7 17 15 17 17 0 8 -8 3 -21 -13z"/>
<path d="M2514 1868 c-46 -34 -104 -87 -104 -94 0 -4 19 11 43 32 23 22 56 49
72 61 17 12 27 23 24 23 -3 0 -19 -10 -35 -22z"/>
<path d="M1240 1860 c-6 -11 -8 -20 -6 -20 3 0 10 9 16 20 6 11 8 20 6 20 -3
0 -10 -9 -16 -20z"/>
<path d="M619 1843 c-13 -16 -12 -17 4 -4 9 7 17 15 17 17 0 8 -8 3 -21 -13z"/>
<path d="M1150 1845 c-7 -9 -8 -15 -2 -15 5 0 12 7 16 15 3 8 4 15 2 15 -2 0
-9 -7 -16 -15z"/>
<path d="M1719 1813 c-58 -60 -104 -122 -96 -129 3 -3 13 8 21 24 9 17 41 58
72 91 66 72 68 82 3 14z"/>
<path d="M2720 1857 c0 -1 -4 -18 -10 -36 -5 -19 -6 -30 -1 -25 10 11 24 64
16 64 -3 0 -5 -1 -5 -3z"/>
<path d="M520 1839 c0 -5 5 -7 10 -4 6 3 10 8 10 11 0 2 -4 4 -10 4 -5 0 -10
-5 -10 -11z"/>
<path d="M1502 1825 c0 -16 2 -22 5 -12 2 9 2 23 0 30 -3 6 -5 -1 -5 -18z"/>
<path d="M579 1813 c-13 -16 -12 -17 4 -4 9 7 17 15 17 17 0 8 -8 3 -21 -13z"/>
<path d="M1181 1765 c-23 -35 -41 -68 -41 -72 0 -5 17 19 38 52 53 84 54 85
48 85 -2 0 -23 -29 -45 -65z"/>
<path d="M491 1807 c-13 -16 -44 -88 -39 -92 2 -2 15 21 29 51 27 57 28 62 10
41z"/>
<path d="M1120 1801 c-6 -12 -7 -21 -1 -21 10 0 24 30 17 37 -2 3 -9 -5 -16
-16z"/>
<path d="M2801 1803 c-1 -6 -4 -20 -7 -30 -5 -17 -5 -17 6 0 6 10 9 23 6 30
-3 9 -5 9 -5 0z"/>
<path d="M549 1773 c-13 -16 -12 -17 4 -4 9 7 17 15 17 17 0 8 -8 3 -21 -13z"/>
<path d="M1467 1744 c-16 -19 -47 -48 -69 -65 -23 -16 -38 -29 -34 -29 22 0
95 63 121 103 24 38 15 34 -18 -9z"/>
<path d="M2682 1751 c-6 -17 -9 -31 -6 -31 7 0 25 52 20 57 -2 2 -8 -10 -14
-26z"/>
<path d="M1076 1721 c-15 -28 -24 -51 -22 -51 7 0 57 93 52 98 -3 2 -16 -19
-30 -47z"/>
<path d="M2364 1728 c-31 -34 -67 -81 -47 -63 21 20 85 95 81 95 -2 0 -18 -15
-34 -32z"/>
<path d="M519 1724 c-5 -15 -8 -29 -5 -31 2 -2 8 10 14 26 13 38 5 41 -9 5z"/>
<path d="M2172 1708 c-6 -23 -9 -44 -7 -46 2 -2 9 15 15 38 6 23 9 44 7 46 -2
3 -9 -14 -15 -38z"/>
<path d="M2770 1726 c-15 -39 -12 -46 6 -13 9 16 13 31 10 34 -3 3 -10 -6 -16
-21z"/>
<path d="M1519 1694 c-13 -14 -41 -35 -61 -45 -21 -11 -38 -22 -38 -24 0 -8
62 24 82 42 9 8 21 12 27 8 7 -4 8 0 4 11 -4 11 -2 15 4 11 6 -4 13 0 17 8 8
23 -8 18 -35 -11z"/>
<path d="M2269 1668 c-50 -66 -52 -68 -46 -68 2 0 23 25 46 55 23 30 40 55 37
55 -2 0 -19 -19 -37 -42z"/>
<path d="M2656 1695 c-9 -26 -7 -32 5 -12 6 10 9 21 6 23 -2 3 -7 -2 -11 -11z"/>
<path d="M2226 1675 c-9 -26 -7 -32 5 -12 6 10 9 21 6 23 -2 3 -7 -2 -11 -11z"/>
<path d="M791 1669 c-2 -42 -84 -118 -131 -120 -24 -2 -24 -2 -2 -6 12 -2 37
5 56 16 39 24 90 94 83 113 -4 9 -6 8 -6 -3z"/>
<path d="M1120 1660 c-6 -11 -8 -20 -6 -20 3 0 10 9 16 20 6 11 8 20 6 20 -3
0 -10 -9 -16 -20z"/>
<path d="M2740 1659 c-7 -11 -10 -23 -7 -25 2 -2 9 7 15 21 14 30 7 33 -8 4z"/>
<path d="M1600 1649 c-7 -11 -10 -23 -7 -25 2 -2 9 7 15 21 14 30 7 33 -8 4z"/>
<path d="M1030 1640 c-6 -11 -8 -20 -6 -20 3 0 10 9 16 20 6 11 8 20 6 20 -3
0 -10 -9 -16 -20z"/>
<path d="M1320 1634 l-25 -15 25 7 c28 7 35 12 29 18 -2 2 -15 -2 -29 -10z"/>
<path d="M1908 1643 c6 -2 18 -2 25 0 6 3 1 5 -13 5 -14 0 -19 -2 -12 -5z"/>
<path d="M2286 1634 c-5 -14 -4 -15 9 -4 17 14 19 20 6 20 -5 0 -12 -7 -15
-16z"/>
<path d="M455 1615 c3 -16 20 -43 38 -60 20 -19 24 -21 10 -5 -12 14 -29 41
-38 60 -15 34 -16 34 -10 5z"/>
<path d="M791 1613 c-10 -26 -10 -27 4 -9 8 11 15 23 15 28 0 15 -7 8 -19 -19z"/>
<path d="M1511 1633 c-1 -6 -4 -20 -7 -30 -5 -17 -5 -17 6 0 6 10 9 23 6 30
-3 9 -5 9 -5 0z"/>
<path d="M1857 1634 c-12 -12 4 -24 34 -24 46 0 73 -34 66 -83 -4 -27 -2 -36
4 -26 30 47 -13 118 -73 120 -28 0 -30 2 -13 9 15 6 16 9 4 9 -9 1 -19 -2 -22
-5z"/>
<path d="M1958 1633 c8 -3 22 -19 33 -37 10 -17 19 -26 19 -20 0 17 -40 64
-53 63 -8 0 -7 -3 1 -6z"/>
<path d="M2141 1609 c-6 -18 -9 -34 -7 -36 2 -2 9 10 15 28 6 18 9 34 7 36 -2
2 -9 -10 -15 -28z"/>
<path d="M2206 1625 c-9 -26 -7 -32 5 -12 6 10 9 21 6 23 -2 3 -7 -2 -11 -11z"/>
<path d="M2621 1613 c-10 -26 -10 -27 4 -9 8 11 15 23 15 28 0 15 -7 8 -19
-19z"/>
<path d="M510 1623 c0 -7 14 -28 31 -48 22 -25 39 -35 58 -34 l26 2 -25 4
c-31 6 -48 20 -72 58 -10 17 -18 25 -18 18z"/>
<path d="M1094 1619 c-13 -22 12 -30 62 -20 l49 10 -54 -5 c-46 -4 -53 -3 -48
10 7 18 1 21 -9 5z"/>
<path d="M1258 1613 c7 -3 16 -2 19 1 4 3 -2 6 -13 5 -11 0 -14 -3 -6 -6z"/>
<path d="M1365 1605 c-25 -12 -26 -14 -5 -9 28 7 60 23 45 23 -5 0 -23 -6 -40
-14z"/>
<path d="M2710 1600 c-6 -11 -8 -20 -6 -20 3 0 10 9 16 20 6 11 8 20 6 20 -3
0 -10 -9 -16 -20z"/>
<path d="M1002 1590 c-18 -29 -15 -38 4 -12 9 13 14 25 12 27 -2 2 -9 -5 -16
-15z"/>
<path d="M1218 1603 c7 -3 16 -2 19 1 4 3 -2 6 -13 5 -11 0 -14 -3 -6 -6z"/>
<path d="M1570 1570 c-6 -23 -9 -44 -7 -46 2 -3 9 14 15 38 6 23 9 44 7 46 -2
2 -9 -15 -15 -38z"/>
<path d="M2252 1583 c-26 -38 -34 -53 -29 -53 2 0 16 18 31 40 29 45 28 56 -2
13z"/>
<path d="M1265 1580 c-27 -7 -28 -8 -5 -8 14 0 34 3 45 8 25 11 2 11 -40 0z"/>
<path d="M2197 1573 c3 -7 6 -13 8 -13 2 0 5 6 8 13 3 8 -1 14 -8 14 -7 0 -11
-6 -8 -14z"/>
<path d="M745 1554 c-18 -16 -22 -22 -9 -15 18 9 53 42 43 41 -2 -1 -17 -12
-34 -26z"/>
<path d="M1198 1563 c6 -2 18 -2 25 0 6 3 1 5 -13 5 -14 0 -19 -2 -12 -5z"/>
<path d="M1491 1554 c0 -11 3 -14 6 -6 3 7 2 16 -1 19 -3 4 -6 -2 -5 -13z"/>
<path d="M2593 1553 c-3 -10 -8 -22 -11 -27 -3 -5 0 -6 5 -3 11 7 25 47 17 47
-3 0 -7 -8 -11 -17z"/>
<path d="M2666 1520 c-14 -27 -24 -50 -22 -50 5 0 40 59 49 83 12 33 -1 17
-27 -33z"/>
<path d="M970 1530 c-6 -11 -8 -20 -6 -20 3 0 10 9 16 20 6 11 8 20 6 20 -3 0
-10 -9 -16 -20z"/>
<path d="M2109 1524 c-5 -15 -8 -29 -5 -31 2 -2 8 10 14 26 13 38 5 41 -9 5z"/>
<path d="M2170 1539 c0 -5 5 -7 10 -4 6 3 10 8 10 11 0 2 -4 4 -10 4 -5 0 -10
-5 -10 -11z"/>
<path d="M540 1516 c14 -14 146 -14 160 0 8 8 -4 8 -40 0 -35 -7 -62 -7 -91 1
-30 8 -38 8 -29 -1z"/>
<path d="M1060 1509 c0 -13 5 -31 10 -39 7 -11 8 -5 4 20 -8 43 -14 51 -14 19z"/>
<path d="M1031 1499 c-7 -12 -10 -23 -8 -26 3 -3 11 5 17 17 15 28 8 35 -9 9z"/>
<path d="M1257 1506 c-7 -17 18 -40 33 -31 5 3 10 15 10 26 0 23 -35 27 -43 5z"/>
<path d="M1991 1489 c-6 -18 -9 -34 -7 -36 2 -2 9 10 15 28 6 18 9 34 7 36 -2
2 -9 -10 -15 -28z"/>
<path d="M2195 1490 c-9 -16 -13 -30 -11 -30 3 0 12 14 21 30 9 17 13 30 11
30 -3 0 -12 -13 -21 -30z"/>
<path d="M2253 1504 c-8 -22 18 -37 36 -20 7 8 10 19 7 25 -10 16 -36 13 -43
-5z"/>
<path d="M1146 1480 c4 -19 10 -42 15 -50 11 -18 1 34 -13 65 -5 13 -6 9 -2
-15z"/>
<path d="M2546 1454 c-14 -31 -26 -59 -26 -63 1 -8 29 44 46 86 23 55 7 37
-20 -23z"/>
<path d="M721 1343 c0 -87 3 -152 6 -145 2 6 9 10 14 6 5 -3 9 17 9 45 l0 51
53 0 c51 0 52 -1 85 -50 17 -28 39 -50 47 -50 21 0 19 7 -20 61 -32 45 -33 48
-14 54 30 10 53 65 45 109 -11 55 -51 76 -148 76 l-78 0 1 -157z m179 100 c27
-34 25 -59 -5 -88 -20 -21 -34 -25 -85 -25 l-60 0 0 73 0 72 65 -3 c56 -3 68
-7 85 -29z"/>
<path d="M885 1389 c-4 -6 -5 -12 -2 -15 2 -3 7 2 10 11 7 17 1 20 -8 4z"/>
<path d="M945 1489 c-4 -6 -5 -12 -2 -15 2 -3 7 2 10 11 7 17 1 20 -8 4z"/>
<path d="M1492 1353 c3 -124 5 -148 18 -148 12 0 15 20 15 118 0 104 6 140 17
106 8 -24 174 -228 186 -228 9 -1 12 35 12 149 0 125 -2 150 -15 150 -12 0
-15 -22 -17 -116 l-3 -115 -90 115 c-123 157 -126 156 -123 -31z"/>
<path d="M1936 1463 c-6 -14 -5 -15 5 -6 7 7 10 15 7 18 -3 3 -9 -2 -12 -12z"/>
<path d="M1000 1440 c-6 -11 -8 -20 -6 -20 3 0 10 9 16 20 6 11 8 20 6 20 -3
0 -10 -9 -16 -20z"/>
<path d="M2076 1443 c-6 -14 -5 -15 5 -6 7 7 10 15 7 18 -3 3 -9 -2 -12 -12z"/>
<path d="M2621 1433 c-10 -26 -10 -27 4 -9 8 11 15 23 15 28 0 15 -7 8 -19
-19z"/>
<path d="M1027 1418 c-31 -11 -31 -35 -1 -30 79 15 98 14 111 -4 7 -10 13 -26
13 -36 0 -15 -9 -18 -54 -18 -68 0 -85 -7 -97 -36 -25 -68 76 -120 139 -71 8
7 12 5 12 -7 0 -9 5 -16 11 -16 7 0 18 -8 25 -17 7 -10 14 -13 14 -6 0 6 -4
15 -10 18 -5 3 -10 47 -10 96 0 82 -2 92 -25 114 -26 27 -76 32 -128 13z m123
-132 c0 -29 -34 -56 -70 -56 -30 0 -50 16 -50 40 0 28 22 40 72 40 44 0 48 -2
48 -24z"/>
<path d="M1258 1293 l-3 -138 -32 -1 c-39 0 -53 -11 -33 -24 23 -15 56 -12 79
8 20 16 21 28 24 155 2 124 0 137 -15 137 -16 0 -18 -15 -20 -137z"/>
<path d="M1865 1418 c-37 -20 -55 -51 -55 -98 0 -55 20 -87 67 -106 96 -41
187 61 142 159 -22 48 -105 73 -154 45z m114 -44 c55 -69 -11 -167 -89 -134
-37 15 -50 37 -50 81 0 74 95 109 139 53z"/>
<path d="M1895 1353 c-22 -19 -31 -31 -20 -25 19 9 74 63 64 62 -2 -1 -22 -17
-44 -37z"/>
<path d="M2090 1314 c0 -100 2 -115 16 -112 12 2 16 19 17 81 2 70 5 81 26 98
13 10 32 19 42 19 10 0 19 7 19 15 0 22 -42 19 -68 -5 l-22 -21 0 21 c0 11 -7
20 -15 20 -12 0 -15 -20 -15 -116z"/>
<path d="M2260 1315 c0 -96 3 -115 15 -115 12 0 15 19 15 115 0 96 -3 115 -15
115 -12 0 -15 -19 -15 -115z"/>
<path d="M2052 1385 c-17 -37 -14 -45 4 -12 9 16 14 31 11 33 -2 2 -9 -7 -15
-21z"/>
<path d="M2591 1373 c-10 -26 -10 -27 4 -9 8 11 15 23 15 28 0 15 -7 8 -19
-19z"/>
<path d="M2500 1356 c-15 -39 -12 -46 6 -13 9 16 13 31 10 34 -3 3 -10 -6 -16
-21z"/>
<path d="M2562 1315 c-17 -37 -14 -45 4 -12 9 16 14 31 11 33 -2 2 -9 -7 -15
-21z"/>
<path d="M414 1300 c-38 -24 -59 -69 -50 -106 8 -30 58 -84 78 -84 7 1 1 7
-14 16 -31 16 -58 61 -58 95 0 13 17 38 40 61 23 21 40 38 38 38 -2 0 -17 -9
-34 -20z"/>
<path d="M580 1311 c11 -9 5 -10 -26 -5 -36 5 -45 3 -71 -22 -16 -16 -18 -20
-5 -9 17 15 39 20 83 21 38 1 56 -2 52 -9 -4 -6 -1 -7 6 -2 16 9 4 21 -29 30
-19 5 -22 4 -10 -4z"/>
<path d="M1215 1290 c9 -16 18 -30 21 -30 2 0 -2 14 -11 30 -9 17 -18 30 -21
30 -2 0 2 -13 11 -30z"/>
<path d="M1552 1308 c-7 -7 -12 -17 -12 -22 0 -6 5 -3 11 7 8 13 14 15 29 7
28 -15 37 -12 14 5 -23 18 -27 18 -42 3z"/>
<path d="M2466 1275 c-9 -26 -7 -32 5 -12 6 10 9 21 6 23 -2 3 -7 -2 -11 -11z"/>
<path d="M793 1268 c-23 -30 -24 -41 -2 -21 12 12 20 25 17 28 -3 3 -10 0 -15
-7z"/>
<path d="M2533 1255 c-3 -9 -3 -18 -1 -21 3 -3 8 4 11 16 6 23 -1 27 -10 5z"/>
<path d="M840 1217 c-14 -12 -41 -35 -60 -50 -19 -16 -26 -24 -15 -19 21 11
114 91 105 91 -3 0 -16 -10 -30 -22z"/>
<path d="M2446 1218 c-8 -32 -7 -141 2 -155 4 -6 7 31 7 83 0 52 -1 94 -1 94
-1 0 -4 -10 -8 -22z"/>
<path d="M441 1214 c0 -11 3 -14 6 -6 3 7 2 16 -1 19 -3 4 -6 -2 -5 -13z"/>
<path d="M2055 1219 c-4 -6 -5 -12 -2 -15 2 -3 7 2 10 11 7 17 1 20 -8 4z"/>
<path d="M1449 1194 c-24 -29 -70 -46 -108 -40 -25 4 -31 2 -21 -4 32 -20 76
-11 116 25 21 19 36 34 33 35 -4 0 -12 -7 -20 -16z"/>
<path d="M1956 1183 c-6 -14 -5 -15 5 -6 7 7 10 15 7 18 -3 3 -9 -2 -12 -12z"/>
<path d="M450 1181 c0 -10 39 -46 43 -40 2 2 -7 14 -20 26 -13 12 -23 19 -23
14z"/>
<path d="M665 1164 c-22 -13 -37 -24 -33 -24 14 0 78 34 78 42 0 10 3 11 -45
-18z"/>
<path d="M1451 1146 l-35 -41 39 37 c22 21 37 39 35 41 -3 2 -20 -15 -39 -37z"/>
<path d="M2511 1164 c0 -11 3 -14 6 -6 3 7 2 16 -1 19 -3 4 -6 -2 -5 -13z"/>
<path d="M2009 1119 c-15 -27 -23 -46 -18 -43 11 6 52 84 47 89 -2 2 -15 -19
-29 -46z"/>
<path d="M1930 1140 c-6 -11 -8 -20 -6 -20 3 0 10 9 16 20 6 11 8 20 6 20 -3
0 -10 -9 -16 -20z"/>
<path d="M538 1133 c12 -2 32 -2 45 0 12 2 2 4 -23 4 -25 0 -35 -2 -22 -4z"/>
<path d="M700 1125 c-14 -8 -20 -14 -15 -14 6 0 21 6 35 14 14 8 21 14 15 14
-5 0 -21 -6 -35 -14z"/>
<path d="M2501 1114 c0 -16 4 -38 9 -49 6 -13 7 -5 3 25 -7 53 -13 66 -12 24z"/>
<path d="M1287 1098 c5 -10 94 -10 110 0 6 4 -17 7 -52 7 -35 0 -61 -3 -58 -7z"/>
<path d="M1905 1100 c-11 -17 15 -40 44 -39 25 1 25 2 -4 8 -20 4 -30 12 -29
24 2 19 -2 22 -11 7z"/>
<path d="M513 1093 c15 -2 39 -2 55 0 15 2 2 4 -28 4 -30 0 -43 -2 -27 -4z"/>
<path d="M608 1093 c7 -3 16 -2 19 1 4 3 -2 6 -13 5 -11 0 -14 -3 -6 -6z"/>
<path d="M2469 1026 c13 -16 51 -41 51 -33 0 2 -15 14 -32 27 -21 15 -28 17
-19 6z"/>
<path d="M2534 1023 c12 -14 29 -22 45 -22 l26 2 -25 4 c-14 3 -34 12 -45 21
-20 17 -20 17 -1 -5z"/>
<path d="M2640 1030 c-12 -8 -9 -10 10 -8 20 2 24 -1 22 -17 -2 -16 -1 -17 7
-5 7 9 6 19 -1 27 -12 15 -18 16 -38 3z"/>
<path d="M2605 980 l-50 -7 47 -1 c26 -1 50 3 53 8 3 6 5 9 3 8 -2 0 -25 -4
-53 -8z"/>
</g>
</svg>
